<?xml version="1.0" standalone="no"?>
<!DOCTYPE svg PUBLIC "-//W3C//DTD SVG 20010904//EN"
 "http://www.w3.org/TR/2001/REC-SVG-20010904/DTD/svg10.dtd">
<svg version="1.0" xmlns="http://www.w3.org/2000/svg"
 width="260.000000pt" height="260.000000pt" viewBox="0 0 260.000000 260.000000"
 preserveAspectRatio="xMidYMid meet">
<metadata>
Created by potrace 1.11, written by Peter Selinger 2001-2013
</metadata>
<g transform="translate(0.000000,260.000000) scale(0.100000,-0.100000)"
fill="#000000" stroke="none">
<path d="M1127 2315 c-408 -78 -717 -364 -825 -764 -22 -84 -25 -116 -25 -251
0 -135 3 -167 25 -251 100 -370 376 -647 744 -746 87 -23 118 -26 254 -26 136
0 167 3 254 26 368 99 644 376 744 746 22 84 25 116 25 251 0 136 -3 167 -26
254 -99 369 -379 648 -746 743 -123 32 -309 39 -424 18z m330 -100 c103 -20
211 -57 282 -96 259 -145 421 -370 476 -662 82 -433 -185 -889 -605 -1032
-306 -104 -610 -57 -870 136 -274 202 -418 565 -355 896 55 292 217 517 476
662 168 94 406 132 596 96z"/>
<path d="M1150 1860 l0 -40 125 0 125 0 0 -110 0 -110 -173 0 c-182 0 -197 -3
-197 -46 0 -43 13 -44 301 -42 l274 3 3 28 c5 42 -13 57 -69 57 l-48 0 -3 148
-3 147 -167 3 -168 2 0 -40z"/>
<path d="M1537 1213 c-4 -3 -7 -24 -7 -45 0 -34 3 -38 25 -38 22 0 25 4 25 39
0 26 -5 41 -16 45 -19 7 -19 7 -27 -1z"/>
<path d="M1617 1213 c-4 -3 -7 -24 -7 -45 0 -34 3 -38 25 -38 22 0 25 4 25 39
0 26 -5 41 -16 45 -19 7 -19 7 -27 -1z"/>
<path d="M1115 1140 c-3 -11 -3 -29 0 -40 6 -19 15 -20 146 -20 99 0 139 -3
139 -12 0 -40 -153 -210 -257 -283 -54 -38 -58 -49 -29 -82 l24 -28 54 38 c30
20 65 48 78 62 13 14 30 25 37 25 8 0 48 -29 90 -65 42 -36 81 -65 88 -65 16
0 45 33 45 51 0 8 -36 44 -80 82 l-80 67 45 55 c53 65 80 116 89 166 13 70 15
69 -194 69 -180 0 -189 -1 -195 -20z"/>
</g>
</svg>
